# WaveFront *.obj file (generated by Autodesk ATF)

mtllib Part1..mtl

g Solid1

v -100.000000 -100.000000 0.000000
v -100.000000 -100.000000 2.000000
v -100.000000 100.000000 0.000000
v -100.000000 100.000000 2.000000
v -45.409541 55.486970 0.000000
v -45.409541 55.486970 2.000000
v -45.409541 56.513028 0.000000
v -45.409541 56.513028 2.000000
v -44.749999 54.700961 0.000000
v -44.749999 54.700961 2.000000
v -44.749999 57.299037 0.000000
v -44.749999 57.299037 2.000000
v -43.739529 54.522786 0.000000
v -43.739529 54.522786 2.000000
v -43.739529 57.477212 0.000000
v -43.739529 57.477212 2.000000
v -42.850933 55.035820 0.000000
v -42.850933 55.035820 2.000000
v -42.850933 56.964183 0.000000
v -42.850933 56.964183 2.000000
v -42.500000 55.999999 0.000000
v -42.500000 55.999999 2.000000
v 100.000000 -100.000000 0.000000
v 100.000000 -100.000000 2.000000
v 100.000000 100.000000 0.000000
v 100.000000 100.000000 2.000000
vt 0.200000 -0.471239 0.000000
vt 0.200000 -0.366519 0.000000
vt 0.200000 -0.261799 0.000000
vt 0.200000 -0.157080 0.000000
vt 0.200000 -0.052360 0.000000
vt 0.200000 0.052360 0.000000
vt 0.200000 0.157080 0.000000
vt 0.200000 0.261799 0.000000
vt 0.200000 0.366519 0.000000
vt 0.000000 0.471239 0.000000
vt 0.000000 0.366519 0.000000
vt 0.000000 0.261799 0.000000
vt 0.000000 0.157080 0.000000
vt 0.000000 0.052360 0.000000
vt 0.000000 -0.052360 0.000000
vt 0.000000 -0.157080 0.000000
vt 0.000000 -0.261799 0.000000
vt 0.000000 -0.366519 0.000000
vt 0.000000 -0.471239 0.000000
vt 0.200000 0.471239 0.000000
vt 0.000000 0.000000 0.000000
vt 20.000000 0.000000 0.000000
vt 20.000000 0.200000 0.000000
vt 0.000000 0.200000 0.000000
vt 0.000000 0.000000 0.000000
vt 20.000000 0.000000 0.000000
vt 20.000000 0.200000 0.000000
vt 0.000000 0.200000 0.000000
vt 0.000000 0.000000 0.000000
vt 20.000000 0.000000 0.000000
vt 20.000000 0.200000 0.000000
vt 0.000000 0.200000 0.000000
vt 0.000000 0.000000 0.000000
vt 20.000000 0.000000 0.000000
vt 20.000000 0.200000 0.000000
vt 0.000000 0.200000 0.000000
vt 10.000000 10.000000 0.000000
vt -10.000000 10.000000 0.000000
vt -10.000000 -10.000000 0.000000
vt 10.000000 -10.000000 0.000000
vt -4.250000 5.600000 0.000000
vt -4.285093 5.503582 0.000000
vt -4.373953 5.452279 0.000000
vt -4.475000 5.470096 0.000000
vt -4.540954 5.548697 0.000000
vt -4.540954 5.651303 0.000000
vt -4.475000 5.729904 0.000000
vt -4.373953 5.747721 0.000000
vt -4.285093 5.696418 0.000000
vt 10.000000 10.000000 0.000000
vt -10.000000 10.000000 0.000000
vt -10.000000 -10.000000 0.000000
vt 10.000000 -10.000000 0.000000
vt 4.250000 5.600000 0.000000
vt 4.285093 5.696418 0.000000
vt 4.373953 5.747721 0.000000
vt 4.475000 5.729904 0.000000
vt 4.540954 5.651303 0.000000
vt 4.540954 5.548697 0.000000
vt 4.475000 5.470096 0.000000
vt 4.373953 5.452279 0.000000
vt 4.285093 5.503582 0.000000
vn -0.100000 0.000000 0.000000
vn -0.076604 -0.064279 0.000000
vn -0.017365 -0.098481 0.000000
vn 0.050000 -0.086603 0.000000
vn 0.093969 -0.034202 0.000000
vn 0.093969 0.034202 0.000000
vn 0.050000 0.086603 0.000000
vn -0.017365 0.098481 0.000000
vn -0.076604 0.064279 0.000000
vn -0.100000 0.000000 0.000000
vn -0.076604 0.064279 0.000000
vn -0.017365 0.098481 0.000000
vn 0.050000 0.086603 0.000000
vn 0.093969 0.034202 0.000000
vn 0.093969 -0.034202 0.000000
vn 0.050000 -0.086603 0.000000
vn -0.017365 -0.098481 0.000000
vn -0.076604 -0.064279 0.000000
vn -0.100000 0.000000 0.000000
vn -0.100000 0.000000 0.000000
vn 0.100000 0.000000 0.000000
vn 0.100000 0.000000 0.000000
vn 0.100000 0.000000 0.000000
vn 0.100000 0.000000 0.000000
vn 0.000000 -0.100000 0.000000
vn 0.000000 -0.100000 0.000000
vn 0.000000 -0.100000 0.000000
vn 0.000000 -0.100000 0.000000
vn -0.100000 0.000000 0.000000
vn -0.100000 0.000000 0.000000
vn -0.100000 0.000000 0.000000
vn -0.100000 0.000000 0.000000
vn 0.000000 0.100000 0.000000
vn 0.000000 0.100000 0.000000
vn 0.000000 0.100000 0.000000
vn 0.000000 0.100000 0.000000
vn 0.000000 0.000000 0.100000
vn 0.000000 0.000000 0.100000
vn 0.000000 0.000000 0.100000
vn 0.000000 0.000000 0.100000
vn 0.000000 0.000000 0.100000
vn 0.000000 0.000000 0.100000
vn 0.000000 0.000000 0.100000
vn 0.000000 0.000000 0.100000
vn 0.000000 0.000000 0.100000
vn 0.000000 0.000000 0.100000
vn 0.000000 0.000000 0.100000
vn 0.000000 0.000000 0.100000
vn 0.000000 0.000000 0.100000
vn 0.000000 0.000000 -0.100000
vn 0.000000 0.000000 -0.100000
vn 0.000000 0.000000 -0.100000
vn 0.000000 0.000000 -0.100000
vn 0.000000 0.000000 -0.100000
vn 0.000000 0.000000 -0.100000
vn 0.000000 0.000000 -0.100000
vn 0.000000 0.000000 -0.100000
vn 0.000000 0.000000 -0.100000
vn 0.000000 0.000000 -0.100000
vn 0.000000 0.000000 -0.100000
vn 0.000000 0.000000 -0.100000
vn 0.000000 0.000000 -0.100000
usemtl 191,191,191
f 20/2/2 19/18/18 22/1/1
f 22/1/1 19/18/18 21/19/19
f 22/20/20 21/10/10 18/9/9
f 18/9/9 21/10/10 17/11/11
f 18/9/9 17/11/11 14/8/8
f 14/8/8 17/11/11 13/12/12
f 14/8/8 13/12/12 10/7/7
f 10/7/7 13/12/12 9/13/13
f 10/7/7 9/13/13 6/6/6
f 6/6/6 9/13/13 5/14/14
f 6/6/6 5/14/14 8/5/5
f 8/5/5 5/14/14 7/15/15
f 8/5/5 7/15/15 12/4/4
f 12/4/4 7/15/15 11/16/16
f 12/4/4 11/16/16 16/3/3
f 16/3/3 11/16/16 15/17/17
f 16/3/3 15/17/17 20/2/2
f 20/2/2 15/17/17 19/18/18
f 23/21/21 25/22/22 24/24/24
f 24/24/24 25/22/22 26/23/23
f 1/25/25 23/26/26 2/28/28
f 2/28/28 23/26/26 24/27/27
f 3/29/29 1/30/30 4/32/32
f 4/32/32 1/30/30 2/31/31
f 25/33/33 3/34/34 26/36/36
f 26/36/36 3/34/34 4/35/35
f 4/38/38 16/48/48 26/37/37
f 26/37/37 16/48/48 20/49/49
f 26/37/37 20/49/49 22/41/41
f 2/39/39 6/45/45 4/38/38
f 4/38/38 6/45/45 8/46/46
f 4/38/38 8/46/46 12/47/47
f 24/40/40 14/43/43 2/39/39
f 2/39/39 14/43/43 10/44/44
f 2/39/39 10/44/44 6/45/45
f 14/43/43 24/40/40 18/42/42
f 18/42/42 24/40/40 26/37/37
f 18/42/42 26/37/37 22/41/41
f 12/47/47 16/48/48 4/38/38
f 25/51/51 15/56/56 3/50/50
f 3/50/50 15/56/56 11/57/57
f 3/50/50 11/57/57 7/58/58
f 23/52/52 17/62/62 25/51/51
f 25/51/51 17/62/62 21/54/54
f 25/51/51 21/54/54 19/55/55
f 17/62/62 23/52/52 13/61/61
f 13/61/61 23/52/52 1/53/53
f 13/61/61 1/53/53 9/60/60
f 9/60/60 1/53/53 5/59/59
f 5/59/59 1/53/53 3/50/50
f 5/59/59 3/50/50 7/58/58
f 19/55/55 15/56/56 25/51/51

# 26 vertices
# 62 texture params
# 62 normals
# 52 facets

# 1 groups
